#!OML:ASF H:\ManfredETheater\Project 1\Capture day 1\Session 1\subject.ASF
:FULLY-SPECIFIED
:DEGREES
271
root 0.623656 17.3595 -27.3104 -166.116 7.64288 -179.645
lowerback 7.8596 1.19771 1.13001
upperback -2.36184 1.94993 2.35421
thorax -6.94023 0.995482 1.5623
lowerneck -16.511 0.37608 -0.19124
upperneck 16.6426 1.82741 -4.9979
head 7.92308 0.461721 -1.40229
rclavicle 1.53064e-014 2.54444e-014
rhumerus -40.4719 9.52056 -92.4094
rradius 63.1426
rwrist -0.850246
rhand -24.2972 -7.10625
rfingers 7.12502
rthumb 2.19031 -37.0747
lclavicle 1.53064e-014 2.54444e-014
lhumerus -44.255 2.97019 86.6554
lradius 51.4764
lwrist -5.01734
lhand -15.0854 1.45747
lfingers 7.12502
lthumb 11.0824 31.1449
rfemur -7.14634 -3.39905 19.6929
rtibia 27.1575
rfoot -20.3356 -28.8114
rtoes -32.3082
lfemur -33.3139 -7.93598 -17.8801
ltibia 52.1113
lfoot -28.1898 -3.38181
ltoes 6.19329
272
root 0.614634 17.323 -27.441 -165.937 7.35171 -179.721
lowerback 7.78124 1.2688 1.06201
upperback -2.39068 2.03267 2.3135
thorax -6.92829 1.03767 1.54781
lowerneck -16.4801 0.240462 -0.292844
upperneck 16.5118 1.62789 -4.87672
head 7.86677 0.372203 -1.36781
rclavicle -1.05356e-014 -2.38542e-014
rhumerus -40.7214 9.62493 -92.5225
rradius 63.3345
rwrist -0.861952
rhand -24.3019 -6.87888
rfingers 7.12502
rthumb 2.18576 -36.8474
lclavicle -1.05356e-014 -2.38542e-014
lhumerus -44.655 2.71301 86.8812
lradius 51.9042
lwrist -4.72805
lhand -15.1732 1.46319
lfingers 7.12502
lthumb 10.9977 31.1551
rfemur -6.86529 -3.33639 19.6354
rtibia 27.2439
rfoot -20.4918 -29.4379
rtoes -32.6525
lfemur -33.1372 -8.36249 -18.0178
ltibia 52.3329
lfoot -28.7794 -3.25693
ltoes 6.44857
273
root 0.60409 17.2857 -27.5747 -165.751 7.06468 -179.847
lowerback 7.69588 1.33729 0.960352
upperback -2.42694 2.10619 2.253
thorax -6.92043 1.07587 1.53302
lowerneck -16.4474 0.104421 -0.394354
upperneck 16.3852 1.42692 -4.74819
head 7.81195 0.282558 -1.33098
rclavicle -1.39149e-015 3.18055e-015
rhumerus -40.9815 9.67041 -92.6081
rradius 63.4898
rwrist -0.847207
rhand -24.2778 -6.68484
rfingers 7.12502
rthumb 2.20903 -36.6532
lclavicle -1.39149e-015 3.18055e-015
lhumerus -45.062 2.44847 87.1047
lradius 52.3622
lwrist -4.43691
lhand -15.2584 1.46649
lfingers 7.12502
lthumb 10.9156 31.1628
rfemur -6.62115 -3.3267 19.5162
rtibia 27.414
rfoot -20.6843 -30.0151
rtoes -33.0215
lfemur -32.9303 -8.84177 -18.2114
ltibia 52.5119
lfoot -29.3723 -3.11537
ltoes 6.7583
274
root 0.591871 17.2479 -27.7113 -165.559 6.78481 -180.023
lowerback 7.60308 1.40505 0.830872
upperback -2.46972 2.17358 2.17044
thorax -6.91524 1.11133 1.51185
lowerneck -16.4167 -0.0312268 -0.490579
upperneck 16.2671 1.22698 -4.62228
head 7.76096 0.193337 -1.29571
rclavicle -1.94809e-014 -1.82882e-014
rhumerus -41.254 9.6502 -92.6633
rradius 63.6064
rwrist -0.812906
rhand -24.2201 -6.53317
rfingers 7.12502
rthumb 2.26481 -36.5009
lclavicle -1.94809e-014 -1.82882e-014
lhumerus -45.4783 2.16938 87.3285
lradius 52.8528
lwrist -4.1441
lhand -15.3656 1.43973
lfingers 7.12502
lthumb 10.8121 31.1414
rfemur -6.42956 -3.37871 19.3322
rtibia 27.6956
rfoot -20.9012 -30.5333
rtoes -33.4116
lfemur -32.6955 -9.36362 -18.4645
ltibia 52.6504
lfoot -29.9621 -2.95666
ltoes 7.10453
275
root 0.577614 17.2096 -27.8498 -165.354 6.50478 -180.256
lowerback 7.5117 1.46201 0.669331
upperback -2.51352 2.22087 2.06453
thorax -6.91175 1.13728 1.48705
lowerneck -16.4175 -0.158689 -0.569766
upperneck 16.1552 1.03573 -4.50236
head 7.71832 0.107812 -1.26435
rclavicle 9.14409e-015 3.18055e-015
rhumerus -41.5113 9.59327 -92.6967
rradius 63.6768
rwrist -0.760874
rhand -24.1396 -6.44225
rfingers 7.12502
rthumb 2.34258 -36.4091
lclavicle 9.14409e-015 3.18055e-015
lhumerus -45.8837 1.89795 87.5399
lradius 53.3767
lwrist -3.87194
lhand -15.4948 1.3662
lfingers 7.12502
lthumb 10.6875 31.0744
rfemur -6.31463 -3.51797 19.0748
rtibia 28.1155
rfoot -21.1026 -30.9854
rtoes -33.8574
lfemur -32.4482 -9.92406 -18.7849
ltibia 52.7521
lfoot -30.5371 -2.78645
ltoes 7.48394
276
root 0.562195 17.1712 -27.99 -165.138 6.24432 -180.548
lowerback 7.42504 1.51762 0.461288
upperback -2.56545 2.25978 1.93538
thorax -6.92032 1.16024 1.46507
lowerneck -16.4225 -0.28157 -0.6479
upperneck 16.0477 0.850001 -4.37673
head 7.67839 0.0253025 -1.23064
rclavicle 1.55052e-014 -1.59028e-014
rhumerus -41.7766 9.48538 -92.7057
rradius 63.7002
rwrist -0.701695
rhand -24.0647 -6.37343
rfingers 7.12502
rthumb 2.41489 -36.3395
lclavicle 1.55052e-014 -1.59028e-014
lhumerus -46.3012 1.63093 87.7438
lradius 53.9384
lwrist -3.61061
lhand -15.6585 1.22825
lfingers 7.12502
lthumb 10.5296 30.9445
rfemur -6.29491 -3.71002 18.7436
rtibia 28.704
rfoot -21.2756 -31.3836
rtoes -34.3421
lfemur -32.189 -10.4945 -19.1762
ltibia 52.8178
lfoot -31.0911 -2.60648
ltoes 7.87683
277
root 0.545845 17.1332 -28.1307 -164.903 5.99811 -180.888
lowerback 7.35162 1.56572 0.210714
upperback -2.61963 2.28312 1.78757
thorax -6.93952 1.17678 1.44922
lowerneck -16.4561 -0.396896 -0.717291
upperneck 15.9382 0.67246 -4.25156
head 7.64344 -0.0535913 -1.19773
rclavicle -1.53064e-014 -8.74653e-015
rhumerus -42.0254 9.33908 -92.6928
rradius 63.6656
rwrist -0.636358
rhand -24.031 -6.29501
rfingers 7.12502
rthumb 2.44747 -36.2607
lclavicle -1.53064e-014 -8.74653e-015
lhumerus -46.7104 1.38765 87.9324
lradius 54.5375
lwrist -3.37926
lhand -15.8443 1.0414
lfingers 7.12502
lthumb 10.3504 30.7667
rfemur -6.39795 -3.95903 18.3523
rtibia 29.4916
rfoot -21.3867 -31.7366
rtoes -34.8733
lfemur -31.9328 -11.0623 -19.6252
ltibia 52.8475
lfoot -31.6109 -2.42547
ltoes 8.2724
278
root 0.528588 17.0964 -28.2716 -164.65 5.76621 -181.272
lowerback 7.29674 1.60642 -0.0733771
upperback -2.6808 2.29268 1.62365
thorax -6.97727 1.18773 1.43659
lowerneck -16.5025 -0.504148 -0.78944
upperneck 15.8266 0.505615 -4.12025
head 7.61056 -0.127299 -1.16121
rclavicle -2.04748e-014 -2.70347e-014
rhumerus -42.2681 9.14678 -92.6535
rradius 63.5676
rwrist -0.564329
rhand -24.0251 -6.20834
rfingers 7.12502
rthumb 2.45316 -36.174
lclavicle -2.04748e-014 -2.70347e-014
lhumerus -47.1142 1.16842 88.1087
lradius 55.1656
lwrist -3.15786
lhand -16.0476 0.819814
lfingers 7.12502
lthumb 10.1543 30.5548
rfemur -6.64092 -4.27933 17.9067
rtibia 30.508
rfoot -21.3808 -32.0469
rtoes -35.4803
lfemur -31.6803 -11.6153 -20.1262
ltibia 52.8384
lfoot -32.0907 -2.24988
ltoes 8.6653
279
root 0.51066 17.0616 -28.4125 -164.381 5.55303 -181.676
lowerback 7.27158 1.6383 -0.37622
upperback -2.74293 2.28864 1.45163
thorax -7.03336 1.19296 1.42695
lowerneck -16.5833 -0.600003 -0.857558
upperneck 15.712 0.353875 -3.99068
head 7.58337 -0.194445 -1.12446
rclavicle 2.38542e-015 -8.74653e-015
rhumerus -42.4939 8.9118 -92.5894
rradius 63.4102
rwrist -0.490615
rhand -24.0425 -6.12944
rfingers 7.12502
rthumb 2.43628 -36.0953
lclavicle 2.38542e-015 -8.74653e-015
lhumerus -47.4953 0.990353 88.2685
lradius 55.8131
lwrist -2.93611
lhand -16.2703 0.571576
lfingers 7.12502
lthumb 9.93936 30.3169
rfemur -7.03849 -4.65482 17.432
rtibia 31.7766
rfoot -21.2227 -32.3108
rtoes -36.1305
lfemur -31.4285 -12.1362 -20.6544
ltibia 52.7881
lfoot -32.5268 -2.08385
ltoes 9.0493
280
root 0.491957 17.0293 -28.5537 -164.096 5.35326 -182.088
lowerback 7.27004 1.66245 -0.678968
upperback -2.80805 2.27485 1.27697
thorax -7.10602 1.19392 1.41499
lowerneck -16.6615 -0.692353 -0.936995
upperneck 15.5757 0.207597 -3.85507
head 7.54898 -0.258958 -1.08315
rclavicle 1.78906e-015 -4.13472e-014
rhumerus -42.7194 8.61812 -92.4901
rradius 63.1985
rwrist -0.417489
rhand -24.0861 -6.04857
rfingers 7.12502
rthumb 2.39425 -36.0149
lclavicle 1.78906e-015 -4.13472e-014
lhumerus -47.8575 0.852281 88.4198
lradius 56.4743
lwrist -2.70838
lhand -16.4927 0.343529
lfingers 7.12502
lthumb 9.72477 30.099
rfemur -7.59787 -5.08705 16.9406
rtibia 33.3134
rfoot -20.8566 -32.5226
rtoes -36.8046
lfemur -31.1714 -12.6198 -21.1968
ltibia 52.6924
lfoot -32.9221 -1.93102
ltoes 9.41499
281
root 0.471768 16.9997 -28.695 -163.796 5.1545 -182.492
lowerback 7.29502 1.67358 -0.952413
upperback -2.8727 2.24727 1.10442
thorax -7.19207 1.18749 1.38977
lowerneck -16.7523 -0.778559 -1.03304
upperneck 15.4251 0.0714881 -3.70846
head 7.51257 -0.318702 -1.0344
rclavicle 3.3197e-014 -1.90833e-014
rhumerus -42.9392 8.26368 -92.3503
rradius 62.9302
rwrist -0.354246
rhand -24.1414 -5.96188
rfingers 7.12502
rthumb 2.34079 -35.9288
lclavicle 3.3197e-014 -1.90833e-014
lhumerus -48.1861 0.763603 88.5648
lradius 57.1336
lwrist -2.45371
lhand -16.7256 0.138219
lfingers 7.12502
lthumb 9.50011 29.9041
rfemur -8.32488 -5.58968 16.4458
rtibia 35.1254
rfoot -20.2689 -32.65
rtoes -37.4216
lfemur -30.9041 -13.0732 -21.7365
ltibia 52.5488
lfoot -33.2787 -1.79293
ltoes 9.76009
282
root 0.450678 16.9732 -28.8371 -163.485 4.96729 -182.869
lowerback 7.34277 1.67445 -1.19428
upperback -2.92709 2.20994 0.942904
thorax -7.27927 1.17558 1.35913
lowerneck -16.8713 -0.853255 -1.12846
upperneck 15.2579 -0.0470272 -3.57179
head 7.47624 -0.3712 -0.987225
rclavicle -9.54166e-015 7.95139e-016
rhumerus -43.1457 7.85327 -92.1682
rradius 62.6067
rwrist -0.319718
rhand -24.2008 -5.88187
rfingers 7.12502
rthumb 2.28347 -35.8494
lclavicle -9.54166e-015 7.95139e-016
lhumerus -48.4642 0.733172 88.7041
lradius 57.778
lwrist -2.16574
lhand -16.9649 -0.0179567
lfingers 7.12502
lthumb 9.26921 29.7583
rfemur -9.21607 -6.11162 15.969
rtibia 37.2045
rfoot -19.459 -32.686
rtoes -37.8935
lfemur -30.615 -13.4859 -22.2541
ltibia 52.3549
lfoot -33.6041 -1.66812
ltoes 10.0713
283
root 0.428899 16.9496 -28.9797 -163.167 4.79302 -183.216
lowerback 7.41796 1.66609 -1.4067
upperback -2.97569 2.164 0.794923
thorax -7.37532 1.15891 1.32659
lowerneck -16.9928 -0.738116 -1.29719
upperneck 15.0721 -0.20696 -3.38324
head 7.43342 -0.562472 -0.931256
rclavicle -1.51076e-014 6.36111e-015
rhumerus -43.35 7.38967 -91.9414
rradius 62.2337
rwrist -0.326297
rhand -24.2745 -5.80908
rfingers 7.12502
rthumb 2.21227 -35.7774
lclavicle -1.51076e-014 6.36111e-015
lhumerus -48.6992 0.759096 88.8414
lradius 58.4029
lwrist -1.84621
lhand -17.2027 -0.107633
lfingers 7.12502
lthumb 9.03975 29.6787
rfemur -10.2709 -6.61813 15.5138
rtibia 39.5326
rfoot -18.4241 -32.6138
rtoes -38.1362
lfemur -30.3021 -13.8608 -22.7463
ltibia 52.1103
lfoot -33.9006 -1.5573
ltoes 10.3545
284
root 0.406556 16.9283 -29.124 -162.848 4.6312 -183.526
lowerback 7.50587 1.65228 -1.57681
upperback -3.01853 2.11606 0.662236
thorax -7.47152 1.14005 1.28634
lowerneck -17.089 -0.815455 -1.41443
upperneck 14.8404 -0.301559 -3.23825
head 7.37299 -0.592533 -0.8732
rclavicle -1.76918e-014 -3.33958e-014
rhumerus -43.5703 6.86174 -91.6647
rradius 61.8082
rwrist -0.387774
rhand -24.3543 -5.73234
rfingers 7.12502
rthumb 2.13522 -35.7014
lclavicle -1.76918e-014 -3.33958e-014
lhumerus -48.9036 0.821309 88.9876
lradius 58.9991
lwrist -1.48775
lhand -17.4626 -0.149127
lfingers 7.12502
lthumb 8.78891 29.6479
rfemur -11.4717 -7.08602 15.088
rtibia 42.0789
rfoot -17.1742 -32.4197
rtoes -38.096
lfemur -29.9515 -14.2006 -23.2056
ltibia 51.8171
lfoot -34.1759 -1.45852
ltoes 10.6119
